<svg width="19" height="48" viewBox="0 0 19 48" fill="none" xmlns="http://www.w3.org/2000/svg">
<path d="M3.54011 7.46625C3.53871 7.49323 3.53871 7.52028 3.54011 7.54726C3.54011 7.52026 3.54011 7.49325 3.54011 7.46625Z" fill="#33535E"/>
<path d="M3.61867 44.0088C3.60684 43.994 3.59591 43.9785 3.58594 43.9623L3.61867 44.0088Z" fill="#33535E"/>
<path d="M3.02344 3.48915L3.09333 8.68423C3.06171 17.4929 4.25826 21.2871 8.91795 22.0179C14.2733 22.8517 12.7456 16.4195 12.7456 16.4195C12.7456 16.4195 16.4068 16.1258 17.2022 18.8381C17.4918 19.8339 17.575 25.8779 17.773 27.9185C17.2338 27.0746 15.8676 25.9556 12.0865 25.3581C4.42301 24.1479 3.26641 19.6195 3.26641 19.6195C3.2248 21.7074 3.72572 26.3353 10.6337 27.8223C14.8807 28.7354 16.7296 30.408 17.5234 31.5591C16.7695 30.6038 15.0272 29.2856 10.9749 28.5379C4.10515 27.267 3.37125 22.8399 3.37125 22.8399C2.95188 29.2536 6.58478 32.0924 9.80663 33.9912C13.0285 35.89 21.1929 41.9341 14.8691 45.7975C8.02928 49.9714 4.01196 44.5772 3.61755 44.0101C8.16075 50.8305 16.9593 47.8059 18.2224 41.7535C19.4855 35.701 9.37727 30.6443 9.37727 30.6443C16.7729 31.4747 18.1658 36.7457 18.1658 36.7457C18.1658 36.7457 18.1225 34.6005 18.0942 32.7186C18.1059 32.7676 18.1109 32.7946 18.1109 32.7946L18.0942 31.6384C18.0942 30.6527 18.0942 29.4443 18.0743 30.1194L17.9361 20.0989C17.9361 20.0989 18.0709 14.6338 11.5773 13.3274C5.00381 12.0041 3.49107 9.19732 3.17987 8.00404L3.11829 3.48578L3.02344 3.48915ZM10.7985 16.0532C10.7985 16.0532 11.5923 19.7022 9.35231 19.4811C7.11232 19.26 4.59109 16.6676 4.75418 13.0675C4.75418 13.0725 6.45663 15.3578 10.7985 16.0532Z" fill="white"/>
<path d="M3.28125 37.767L3.59911 44.0018L3.67733 37.8109L3.28125 37.767Z" fill="#263F47"/>
<path d="M2.98364 0.37226L0.890625 2.55511L3.04292 4.67785L5.13593 2.49499L2.98364 0.37226Z" fill="#D4A017"/>
<path d="M3.45239 35.2902L1.35938 37.4731L3.51167 39.5958L5.60468 37.413L3.45239 35.2902Z" fill="#D4A017"/>
</svg>
